<svg width="134" height="31" viewBox="0 0 134 31" fill="none" xmlns="http://www.w3.org/2000/svg">
<path d="M4.5592 10.4574H11.2163C12.1953 10.4574 13.0111 10.1854 13.6638 9.64155C14.3164 9.07591 14.6427 8.27097 14.6427 7.22672C14.6427 6.05194 14.3491 5.22524 13.7617 4.74662C13.1743 4.26801 12.3258 4.0287 11.2163 4.0287H4.5592V10.4574ZM0.480096 0.700151H11.8037C13.8922 0.700151 15.5673 1.17877 16.8291 2.136C18.091 3.09323 18.7219 4.53995 18.7219 6.47617C18.7219 7.65095 18.4282 8.66256 17.8408 9.51102C17.2751 10.3377 16.4593 10.9795 15.3933 11.4364V11.5016C16.8291 11.8062 17.9169 12.4915 18.6566 13.5575C19.3963 14.6017 19.7661 15.9179 19.7661 17.5061C19.7661 18.4198 19.6029 19.2791 19.2766 20.0841C18.9503 20.8672 18.439 21.5525 17.7429 22.1399C17.0467 22.7056 16.1547 23.1624 15.067 23.5105C13.9792 23.8368 12.6848 24 11.1837 24H0.480096V0.700151ZM4.5592 20.6715H11.7711C13.0111 20.6715 13.9683 20.356 14.6427 19.7251C15.3389 19.0724 15.687 18.1587 15.687 16.9839C15.687 15.8309 15.3389 14.9498 14.6427 14.3407C13.9683 13.7098 13.0111 13.3943 11.7711 13.3943H4.5592V20.6715ZM22.9348 7.12882H26.4265V10.3921H26.4918C26.6006 9.93525 26.8072 9.48926 27.1118 9.05416C27.4381 8.61905 27.8189 8.22746 28.254 7.87938C28.7108 7.50954 29.2112 7.21584 29.7551 6.99829C30.2989 6.78074 30.8537 6.67196 31.4193 6.67196C31.8544 6.67196 32.1481 6.68284 32.3004 6.70459C32.4745 6.72635 32.6485 6.7481 32.8226 6.76986V10.3595C32.5615 10.316 32.2896 10.2833 32.0067 10.2616C31.7457 10.2181 31.4846 10.1963 31.2235 10.1963C30.5926 10.1963 29.9944 10.3268 29.4287 10.5879C28.8849 10.8272 28.4062 11.197 27.9929 11.6974C27.5795 12.176 27.2532 12.7743 27.0139 13.4922C26.7746 14.2101 26.6549 15.0368 26.6549 15.9723V24H22.9348V7.12882ZM48.5373 20.2472C48.5373 20.7041 48.5917 21.0304 48.7005 21.2262C48.831 21.422 49.0703 21.5199 49.4184 21.5199C49.5272 21.5199 49.6577 21.5199 49.81 21.5199C49.9623 21.5199 50.1363 21.4981 50.3321 21.4546V24.0326C50.2016 24.0761 50.0275 24.1197 49.81 24.1632C49.6142 24.2284 49.4075 24.2828 49.19 24.3263C48.9724 24.3698 48.7549 24.4025 48.5373 24.4242C48.3198 24.446 48.1348 24.4569 47.9825 24.4569C47.2211 24.4569 46.5902 24.3046 46.0898 24C45.5895 23.6954 45.2631 23.1624 45.1109 22.401C44.3712 23.1189 43.4575 23.641 42.3697 23.9674C41.3037 24.2937 40.2703 24.4569 39.2696 24.4569C38.5081 24.4569 37.7793 24.3481 37.0832 24.1305C36.387 23.9347 35.767 23.641 35.2231 23.2494C34.701 22.8361 34.2768 22.3248 33.9504 21.7157C33.6459 21.0848 33.4936 20.356 33.4936 19.5293C33.4936 18.4851 33.6785 17.6366 34.0483 16.9839C34.4399 16.3313 34.9403 15.82 35.5494 15.4502C36.1803 15.0804 36.8765 14.8193 37.6379 14.667C38.4211 14.493 39.2043 14.3624 39.9875 14.2754C40.6619 14.1449 41.3037 14.0579 41.9128 14.0144C42.522 13.9491 43.055 13.8512 43.5119 13.7207C43.9905 13.5901 44.3603 13.3943 44.6214 13.1333C44.9042 12.8504 45.0456 12.4371 45.0456 11.8932C45.0456 11.4146 44.9259 11.023 44.6866 10.7184C44.4691 10.4139 44.1863 10.1854 43.8382 10.0331C43.5119 9.8591 43.142 9.75033 42.7287 9.70682C42.3153 9.64155 41.9237 9.60892 41.5539 9.60892C40.5096 9.60892 39.6503 9.82647 38.9759 10.2616C38.3015 10.6967 37.9208 11.3711 37.8337 12.2848H34.1136C34.1789 11.197 34.4399 10.2942 34.8968 9.57628C35.3536 8.85836 35.9302 8.28185 36.6263 7.84674C37.3442 7.41164 38.1492 7.10707 39.0412 6.93303C39.9331 6.75898 40.8468 6.67196 41.7823 6.67196C42.609 6.67196 43.4248 6.75898 44.2298 6.93303C45.0347 7.10707 45.7526 7.38988 46.3835 7.78148C47.0362 8.17307 47.5583 8.68432 47.9499 9.31522C48.3415 9.92437 48.5373 10.6749 48.5373 11.5669V20.2472ZM44.8172 15.5481C44.2515 15.9179 43.5554 16.1464 42.7287 16.2334C41.902 16.2986 41.0753 16.4074 40.2486 16.5597C39.857 16.625 39.4763 16.7229 39.1064 16.8534C38.7366 16.9622 38.4103 17.1253 38.1274 17.3429C37.8446 17.5387 37.6162 17.8106 37.4421 18.1587C37.2899 18.4851 37.2137 18.8875 37.2137 19.3661C37.2137 19.7795 37.3334 20.1276 37.5727 20.4104C37.812 20.6932 38.0948 20.9216 38.4211 21.0957C38.7692 21.248 39.1391 21.3567 39.5306 21.422C39.944 21.4873 40.3138 21.5199 40.6402 21.5199C41.0535 21.5199 41.4995 21.4655 41.9781 21.3567C42.4567 21.248 42.9027 21.063 43.3161 20.802C43.7512 20.5409 44.1101 20.2146 44.3929 19.823C44.6758 19.4096 44.8172 18.9093 44.8172 18.3219V15.5481ZM52.5402 7.12882H56.0645V9.60892L56.1298 9.67418C56.6954 8.73871 57.4351 8.00991 58.3488 7.48778C59.2625 6.9439 60.2742 6.67196 61.3837 6.67196C63.2329 6.67196 64.6905 7.15058 65.7565 8.10781C66.8225 9.06504 67.3555 10.5009 67.3555 12.4153V24H63.6354V13.3943C63.5918 12.0673 63.309 11.11 62.7869 10.5226C62.2648 9.91349 61.449 9.60892 60.3394 9.60892C59.7085 9.60892 59.1429 9.72857 58.6425 9.96788C58.1422 10.1854 57.7179 10.5009 57.3698 10.9142C57.0218 11.3058 56.7498 11.7736 56.554 12.3174C56.3582 12.8613 56.2603 13.4378 56.2603 14.047V24H52.5402V7.12882ZM87.1708 24H83.6464V21.7157H83.5812C83.0808 22.6947 82.352 23.4017 81.3948 23.8368C80.4375 24.2502 79.4259 24.4569 78.3599 24.4569C77.0328 24.4569 75.8689 24.2284 74.8682 23.7716C73.8892 23.293 73.0734 22.6512 72.4207 21.8462C71.7681 21.0413 71.2786 20.0949 70.9522 19.0072C70.6259 17.8977 70.4628 16.712 70.4628 15.4502C70.4628 13.9273 70.6694 12.6111 71.0828 11.5016C71.4961 10.3921 72.04 9.47839 72.7144 8.76046C73.4106 8.04254 74.1938 7.52042 75.064 7.19409C75.9559 6.846 76.8588 6.67196 77.7725 6.67196C78.2946 6.67196 78.8276 6.72635 79.3715 6.83513C79.9154 6.92215 80.4375 7.07443 80.9379 7.29199C81.4383 7.50954 81.8951 7.79236 82.3085 8.14044C82.7436 8.46677 83.1025 8.85836 83.3854 9.31522H83.4506V0.700151H87.1708V24ZM74.1829 15.7439C74.1829 16.4618 74.2699 17.1689 74.444 17.865C74.6398 18.5612 74.9226 19.1812 75.2924 19.7251C75.684 20.269 76.1735 20.7041 76.7609 21.0304C77.3483 21.3567 78.0444 21.5199 78.8494 21.5199C79.6761 21.5199 80.3831 21.3459 80.9705 20.9978C81.5797 20.6497 82.0692 20.1928 82.439 19.6272C82.8306 19.0616 83.1134 18.4307 83.2875 17.7345C83.4833 17.0166 83.5812 16.2878 83.5812 15.5481C83.5812 13.6771 83.1569 12.2195 82.3085 11.1753C81.4818 10.131 80.3505 9.60892 78.9147 9.60892C78.0444 9.60892 77.3048 9.79384 76.6956 10.1637C76.1082 10.5118 75.6187 10.9795 75.2271 11.5669C74.8573 12.1325 74.5854 12.7852 74.4113 13.5249C74.259 14.2428 74.1829 14.9825 74.1829 15.7439ZM91.3258 0.700151H95.046V4.2245H91.3258V0.700151ZM91.3258 7.12882H95.046V24H91.3258V7.12882ZM99.0993 7.12882H102.624V9.60892L102.689 9.67418C103.255 8.73871 103.994 8.00991 104.908 7.48778C105.822 6.9439 106.833 6.67196 107.943 6.67196C109.792 6.67196 111.25 7.15058 112.316 8.10781C113.382 9.06504 113.915 10.5009 113.915 12.4153V24H110.195V13.3943C110.151 12.0673 109.868 11.11 109.346 10.5226C108.824 9.91349 108.008 9.60892 106.899 9.60892C106.268 9.60892 105.702 9.72857 105.202 9.96788C104.701 10.1854 104.277 10.5009 103.929 10.9142C103.581 11.3058 103.309 11.7736 103.113 12.3174C102.917 12.8613 102.819 13.4378 102.819 14.047V24H99.0993V7.12882ZM133.436 23.1189C133.436 25.6643 132.718 27.557 131.282 28.797C129.868 30.0588 127.823 30.6897 125.147 30.6897C124.299 30.6897 123.44 30.6027 122.569 30.4287C121.721 30.2546 120.938 29.9609 120.22 29.5476C119.524 29.1342 118.936 28.5904 118.458 27.9159C117.979 27.2415 117.696 26.4148 117.609 25.4358H121.329C121.438 25.958 121.623 26.3822 121.884 26.7085C122.145 27.0349 122.45 27.285 122.798 27.4591C123.168 27.6549 123.57 27.7745 124.005 27.818C124.44 27.8833 124.897 27.9159 125.376 27.9159C126.877 27.9159 127.976 27.5461 128.672 26.8064C129.368 26.0667 129.716 25.0007 129.716 23.6084V21.0304H129.651C129.129 21.9659 128.411 22.6947 127.497 23.2168C126.605 23.7389 125.637 24 124.593 24C123.244 24 122.091 23.7716 121.134 23.3147C120.198 22.8361 119.415 22.1943 118.784 21.3894C118.175 20.5627 117.729 19.6163 117.446 18.5503C117.163 17.4843 117.022 16.3422 117.022 15.1239C117.022 13.9926 117.196 12.9157 117.544 11.8932C117.892 10.8707 118.392 9.97876 119.045 9.21732C119.698 8.43414 120.492 7.81411 121.427 7.35725C122.385 6.90039 123.461 6.67196 124.658 6.67196C125.724 6.67196 126.703 6.90039 127.595 7.35725C128.487 7.79236 129.172 8.48852 129.651 9.44575H129.716V7.12882H133.436V23.1189ZM125.18 21.063C126.007 21.063 126.703 20.8999 127.269 20.5736C127.856 20.2255 128.324 19.7795 128.672 19.2356C129.042 18.67 129.303 18.0391 129.455 17.3429C129.629 16.625 129.716 15.9071 129.716 15.1891C129.716 14.4712 129.629 13.775 129.455 13.1006C129.281 12.4262 129.009 11.828 128.639 11.3058C128.291 10.7837 127.823 10.3704 127.236 10.0658C126.67 9.7612 125.985 9.60892 125.18 9.60892C124.353 9.60892 123.657 9.78296 123.092 10.131C122.526 10.4791 122.069 10.936 121.721 11.5016C121.373 12.0455 121.123 12.6764 120.97 13.3943C120.818 14.0905 120.742 14.7867 120.742 15.4828C120.742 16.179 120.829 16.8643 121.003 17.5387C121.177 18.1914 121.438 18.7787 121.786 19.3009C122.156 19.823 122.613 20.2472 123.157 20.5736C123.723 20.8999 124.397 21.063 125.18 21.063Z" fill="#FFFE03"/>
</svg>
