<svg width="198" height="31" viewBox="0 0 198 31" fill="none" xmlns="http://www.w3.org/2000/svg">
<path d="M0.480096 0.700151H10.1394C11.9233 0.700151 13.468 1.00472 14.7733 1.61387C16.0786 2.22302 17.1446 3.06059 17.9713 4.1266C18.798 5.17085 19.4071 6.40002 19.7987 7.81411C20.2121 9.2282 20.4188 10.7402 20.4188 12.3501C20.4188 13.96 20.2121 15.472 19.7987 16.886C19.4071 18.3001 18.798 19.5402 17.9713 20.6062C17.1446 21.6504 16.0786 22.4771 14.7733 23.0863C13.468 23.6954 11.9233 24 10.1394 24H0.480096V0.700151ZM4.5592 20.6715H8.57304C10.1612 20.6715 11.4556 20.4648 12.4563 20.0514C13.4788 19.6163 14.2729 19.0289 14.8385 18.2893C15.4259 17.5278 15.8175 16.6467 16.0133 15.646C16.2309 14.6235 16.3397 13.5249 16.3397 12.3501C16.3397 11.1753 16.2309 10.0875 16.0133 9.08679C15.8175 8.0643 15.4259 7.18321 14.8385 6.44353C14.2729 5.6821 13.4788 5.09471 12.4563 4.68136C11.4556 4.24625 10.1612 4.0287 8.57304 4.0287H4.5592V20.6715ZM35.0931 14.0796C35.0496 13.4922 34.919 12.9266 34.7015 12.3827C34.5057 11.8388 34.2229 11.3711 33.853 10.9795C33.505 10.5661 33.0699 10.2398 32.5477 10.0005C32.0474 9.73945 31.4817 9.60892 30.8508 9.60892C30.1982 9.60892 29.5999 9.72857 29.056 9.96788C28.5339 10.1854 28.077 10.5009 27.6854 10.9142C27.3156 11.3058 27.011 11.7736 26.7717 12.3174C26.5542 12.8613 26.4345 13.4487 26.4128 14.0796H35.0931ZM26.4128 16.5271C26.4128 17.1797 26.4998 17.8106 26.6738 18.4198C26.8696 19.0289 27.1524 19.5619 27.5223 20.0188C27.8921 20.4757 28.3598 20.8455 28.9255 21.1283C29.4911 21.3894 30.1655 21.5199 30.9487 21.5199C32.0365 21.5199 32.9067 21.2915 33.5593 20.8346C34.2338 20.356 34.7341 19.649 35.0605 18.7135H38.5848C38.389 19.6272 38.0518 20.443 37.5732 21.1609C37.0946 21.8789 36.5181 22.488 35.8436 22.9884C35.1692 23.467 34.4078 23.826 33.5593 24.0653C32.7326 24.3263 31.8624 24.4569 30.9487 24.4569C29.6216 24.4569 28.4469 24.2393 27.4244 23.8042C26.4019 23.3691 25.5317 22.76 24.8137 21.9768C24.1176 21.1936 23.5846 20.2581 23.2147 19.1703C22.8666 18.0826 22.6926 16.886 22.6926 15.5807C22.6926 14.3842 22.8775 13.2529 23.2474 12.1869C23.639 11.0992 24.1828 10.1528 24.879 9.34785C25.5969 8.52116 26.4563 7.8685 27.457 7.38988C28.4577 6.91127 29.589 6.67196 30.8508 6.67196C32.1779 6.67196 33.3635 6.95478 34.4078 7.52042C35.4738 8.0643 36.3549 8.7931 37.0511 9.70682C37.7472 10.6205 38.2476 11.6757 38.5522 12.8722C38.8785 14.047 38.9655 15.2653 38.8132 16.5271H26.4128ZM39.977 7.12882H44.0235L48.2984 20.0841H48.3637L52.4754 7.12882H56.3261L50.289 24H46.112L39.977 7.12882ZM70.1479 14.0796C70.1044 13.4922 69.9738 12.9266 69.7563 12.3827C69.5605 11.8388 69.2777 11.3711 68.9078 10.9795C68.5598 10.5661 68.1247 10.2398 67.6025 10.0005C67.1022 9.73945 66.5365 9.60892 65.9056 9.60892C65.253 9.60892 64.6547 9.72857 64.1108 9.96788C63.5887 10.1854 63.1318 10.5009 62.7402 10.9142C62.3704 11.3058 62.0658 11.7736 61.8265 12.3174C61.609 12.8613 61.4893 13.4487 61.4676 14.0796H70.1479ZM61.4676 16.5271C61.4676 17.1797 61.5546 17.8106 61.7286 18.4198C61.9244 19.0289 62.2072 19.5619 62.5771 20.0188C62.9469 20.4757 63.4146 20.8455 63.9803 21.1283C64.5459 21.3894 65.2203 21.5199 66.0035 21.5199C67.0913 21.5199 67.9615 21.2915 68.6141 20.8346C69.2886 20.356 69.7889 19.649 70.1153 18.7135H73.6396C73.4438 19.6272 73.1066 20.443 72.628 21.1609C72.1494 21.8789 71.5729 22.488 70.8984 22.9884C70.224 23.467 69.4626 23.826 68.6141 24.0653C67.7874 24.3263 66.9172 24.4569 66.0035 24.4569C64.6765 24.4569 63.5017 24.2393 62.4792 23.8042C61.4567 23.3691 60.5865 22.76 59.8685 21.9768C59.1724 21.1936 58.6394 20.2581 58.2695 19.1703C57.9215 18.0826 57.7474 16.886 57.7474 15.5807C57.7474 14.3842 57.9323 13.2529 58.3022 12.1869C58.6938 11.0992 59.2376 10.1528 59.9338 9.34785C60.6517 8.52116 61.5111 7.8685 62.5118 7.38988C63.5125 6.91127 64.6438 6.67196 65.9056 6.67196C67.2327 6.67196 68.4184 6.95478 69.4626 7.52042C70.5286 8.0643 71.4097 8.7931 72.1059 9.70682C72.802 10.6205 73.3024 11.6757 73.607 12.8722C73.9333 14.047 74.0203 15.2653 73.868 16.5271H61.4676ZM76.794 0.700151H80.5142V24H76.794V0.700151ZM92.3015 24.4569C90.9527 24.4569 89.7453 24.2393 88.6793 23.8042C87.635 23.3473 86.7431 22.7273 86.0034 21.9441C85.2855 21.1609 84.7307 20.2255 84.3391 19.1377C83.9693 18.0499 83.7843 16.8534 83.7843 15.5481C83.7843 14.2645 83.9693 13.0789 84.3391 11.9911C84.7307 10.9034 85.2855 9.96788 86.0034 9.18469C86.7431 8.4015 87.635 7.79236 88.6793 7.35725C89.7453 6.90039 90.9527 6.67196 92.3015 6.67196C93.6503 6.67196 94.8469 6.90039 95.8911 7.35725C96.9571 7.79236 97.8491 8.4015 98.567 9.18469C99.3067 9.96788 99.8615 10.9034 100.231 11.9911C100.623 13.0789 100.819 14.2645 100.819 15.5481C100.819 16.8534 100.623 18.0499 100.231 19.1377C99.8615 20.2255 99.3067 21.1609 98.567 21.9441C97.8491 22.7273 96.9571 23.3473 95.8911 23.8042C94.8469 24.2393 93.6503 24.4569 92.3015 24.4569ZM92.3015 21.5199C93.1282 21.5199 93.8461 21.3459 94.4553 20.9978C95.0644 20.6497 95.5648 20.1928 95.9564 19.6272C96.348 19.0616 96.6308 18.4307 96.8048 17.7345C97.0006 17.0166 97.0985 16.2878 97.0985 15.5481C97.0985 14.8302 97.0006 14.1122 96.8048 13.3943C96.6308 12.6764 96.348 12.0455 95.9564 11.5016C95.5648 10.936 95.0644 10.4791 94.4553 10.131C93.8461 9.78296 93.1282 9.60892 92.3015 9.60892C91.4748 9.60892 90.7569 9.78296 90.1477 10.131C89.5386 10.4791 89.0382 10.936 88.6466 11.5016C88.255 12.0455 87.9613 12.6764 87.7655 13.3943C87.5915 14.1122 87.5045 14.8302 87.5045 15.5481C87.5045 16.2878 87.5915 17.0166 87.7655 17.7345C87.9613 18.4307 88.255 19.0616 88.6466 19.6272C89.0382 20.1928 89.5386 20.6497 90.1477 20.9978C90.7569 21.3459 91.4748 21.5199 92.3015 21.5199ZM104.009 7.12882H107.534V9.41312H107.599C108.121 8.43414 108.85 7.73797 109.785 7.32462C110.721 6.88951 111.732 6.67196 112.82 6.67196C114.147 6.67196 115.3 6.91127 116.279 7.38988C117.28 7.84674 118.107 8.48852 118.759 9.31522C119.412 10.1202 119.901 11.0665 120.228 12.1543C120.554 13.242 120.717 14.4059 120.717 15.646C120.717 16.7773 120.565 17.8759 120.26 18.9419C119.978 20.0079 119.532 20.9543 118.923 21.781C118.335 22.5859 117.585 23.2386 116.671 23.7389C115.757 24.2176 114.68 24.4569 113.44 24.4569C112.896 24.4569 112.352 24.4025 111.809 24.2937C111.265 24.2067 110.743 24.0544 110.242 23.8368C109.742 23.6193 109.274 23.3473 108.839 23.021C108.426 22.6729 108.078 22.2705 107.795 21.8136H107.729V30.2329H104.009V7.12882ZM116.997 15.5807C116.997 14.8193 116.899 14.0796 116.703 13.3617C116.508 12.6438 116.214 12.0129 115.822 11.469C115.431 10.9034 114.941 10.4574 114.354 10.131C113.767 9.78296 113.092 9.60892 112.331 9.60892C110.764 9.60892 109.579 10.1528 108.774 11.2406C107.991 12.3283 107.599 13.775 107.599 15.5807C107.599 16.4292 107.697 17.2232 107.893 17.9629C108.11 18.6808 108.426 19.3009 108.839 19.823C109.252 20.3451 109.742 20.7585 110.307 21.063C110.895 21.3676 111.569 21.5199 112.331 21.5199C113.179 21.5199 113.897 21.3459 114.484 20.9978C115.072 20.6497 115.55 20.2037 115.92 19.6598C116.312 19.0942 116.584 18.4633 116.736 17.7671C116.91 17.0492 116.997 16.3204 116.997 15.5807ZM123.861 7.12882H127.385V9.47839H127.483C127.766 9.06504 128.07 8.68432 128.397 8.33624C128.723 7.98815 129.082 7.69446 129.474 7.45515C129.887 7.21584 130.355 7.03092 130.877 6.90039C131.399 6.7481 131.997 6.67196 132.672 6.67196C133.694 6.67196 134.64 6.90039 135.511 7.35725C136.403 7.81411 137.034 8.52116 137.403 9.47839C138.034 8.60818 138.763 7.92289 139.59 7.42252C140.417 6.92215 141.45 6.67196 142.69 6.67196C144.474 6.67196 145.855 7.10707 146.834 7.97728C147.835 8.84748 148.335 10.3051 148.335 12.3501V24H144.615V14.1449C144.615 13.4705 144.594 12.8613 144.55 12.3174C144.506 11.7518 144.376 11.2732 144.158 10.8816C143.963 10.4682 143.658 10.1528 143.245 9.93525C142.831 9.71769 142.266 9.60892 141.548 9.60892C140.286 9.60892 139.372 10.0005 138.807 10.7837C138.241 11.5669 137.958 12.6764 137.958 14.1122V24H134.238V13.1659C134.238 11.9911 134.02 11.11 133.585 10.5226C133.172 9.91349 132.4 9.60892 131.268 9.60892C130.79 9.60892 130.322 9.70682 129.865 9.90261C129.43 10.0984 129.039 10.3812 128.69 10.7511C128.364 11.1209 128.092 11.5778 127.875 12.1216C127.679 12.6655 127.581 13.2856 127.581 13.9817V24H123.861V7.12882ZM163.84 14.0796C163.796 13.4922 163.666 12.9266 163.448 12.3827C163.252 11.8388 162.97 11.3711 162.6 10.9795C162.252 10.5661 161.817 10.2398 161.294 10.0005C160.794 9.73945 160.228 9.60892 159.598 9.60892C158.945 9.60892 158.347 9.72857 157.803 9.96788C157.281 10.1854 156.824 10.5009 156.432 10.9142C156.062 11.3058 155.758 11.7736 155.518 12.3174C155.301 12.8613 155.181 13.4487 155.16 14.0796H163.84ZM155.16 16.5271C155.16 17.1797 155.247 17.8106 155.421 18.4198C155.616 19.0289 155.899 19.5619 156.269 20.0188C156.639 20.4757 157.107 20.8455 157.672 21.1283C158.238 21.3894 158.912 21.5199 159.695 21.5199C160.783 21.5199 161.653 21.2915 162.306 20.8346C162.981 20.356 163.481 19.649 163.807 18.7135H167.332C167.136 19.6272 166.799 20.443 166.32 21.1609C165.841 21.8789 165.265 22.488 164.59 22.9884C163.916 23.467 163.155 23.826 162.306 24.0653C161.479 24.3263 160.609 24.4569 159.695 24.4569C158.368 24.4569 157.194 24.2393 156.171 23.8042C155.149 23.3691 154.278 22.76 153.56 21.9768C152.864 21.1936 152.331 20.2581 151.961 19.1703C151.613 18.0826 151.439 16.886 151.439 15.5807C151.439 14.3842 151.624 13.2529 151.994 12.1869C152.386 11.0992 152.93 10.1528 153.626 9.34785C154.344 8.52116 155.203 7.8685 156.204 7.38988C157.204 6.91127 158.336 6.67196 159.598 6.67196C160.925 6.67196 162.11 6.95478 163.155 7.52042C164.221 8.0643 165.102 8.7931 165.798 9.70682C166.494 10.6205 166.994 11.6757 167.299 12.8722C167.625 14.047 167.712 15.2653 167.56 16.5271H155.16ZM170.388 7.12882H173.912V9.60892L173.978 9.67418C174.543 8.73871 175.283 8.00991 176.197 7.48778C177.11 6.9439 178.122 6.67196 179.232 6.67196C181.081 6.67196 182.538 7.15058 183.604 8.10781C184.67 9.06504 185.203 10.5009 185.203 12.4153V24H181.483V13.3943C181.44 12.0673 181.157 11.11 180.635 10.5226C180.113 9.91349 179.297 9.60892 178.187 9.60892C177.556 9.60892 176.991 9.72857 176.49 9.96788C175.99 10.1854 175.566 10.5009 175.218 10.9142C174.87 11.3058 174.598 11.7736 174.402 12.3174C174.206 12.8613 174.108 13.4378 174.108 14.047V24H170.388V7.12882ZM187.43 7.12882H190.236V2.07073H193.956V7.12882H197.317V9.90261H193.956V18.9093C193.956 19.3009 193.967 19.6381 193.989 19.9209C194.032 20.2037 194.108 20.443 194.217 20.6388C194.348 20.8346 194.533 20.9869 194.772 21.0957C195.011 21.1827 195.338 21.2262 195.751 21.2262C196.012 21.2262 196.273 21.2262 196.534 21.2262C196.795 21.2045 197.056 21.1609 197.317 21.0957V23.9674C196.904 24.0109 196.501 24.0544 196.11 24.0979C195.718 24.1414 195.316 24.1632 194.902 24.1632C193.923 24.1632 193.129 24.0761 192.52 23.9021C191.933 23.7063 191.465 23.4344 191.117 23.0863C190.791 22.7164 190.562 22.2596 190.432 21.7157C190.323 21.1718 190.258 20.5518 190.236 19.8556V9.90261H187.43V7.12882Z" fill="#FFFE03"/>
</svg>
