<svg width="126" height="31" viewBox="0 0 126 31" fill="none" xmlns="http://www.w3.org/2000/svg">
<path d="M4.15599 16.2334C4.15599 17.1253 4.30828 17.8868 4.61285 18.5177C4.91742 19.1486 5.34165 19.6707 5.88553 20.0841C6.42941 20.4757 7.04943 20.7693 7.7456 20.9651C8.46352 21.1392 9.23583 21.2262 10.0625 21.2262C10.9545 21.2262 11.7159 21.1283 12.3468 20.9325C12.9777 20.715 13.489 20.443 13.8806 20.1167C14.2722 19.7904 14.555 19.4205 14.729 19.0072C14.9031 18.5721 14.9901 18.137 14.9901 17.7019C14.9901 16.8099 14.7834 16.1572 14.3701 15.7439C13.9785 15.3088 13.5434 15.0042 13.0648 14.8302C12.2381 14.5256 11.2699 14.2428 10.1604 13.9817C9.07267 13.6989 7.72385 13.3399 6.11396 12.9048C5.11322 12.6438 4.27564 12.3066 3.60123 11.8932C2.94857 11.4581 2.42645 10.9795 2.03485 10.4574C1.64326 9.93525 1.36044 9.38049 1.1864 8.7931C1.03411 8.2057 0.95797 7.60744 0.95797 6.99829C0.95797 5.82351 1.19728 4.81189 1.67589 3.96344C2.17626 3.09323 2.82892 2.3753 3.63386 1.80967C4.43881 1.24403 5.35253 0.830683 6.37502 0.56962C7.39752 0.286803 8.43089 0.145394 9.47514 0.145394C10.6934 0.145394 11.8356 0.308558 12.9016 0.634886C13.9894 0.93946 14.9357 1.4072 15.7406 2.0381C16.5673 2.669 17.22 3.45219 17.6986 4.38766C18.1772 5.30138 18.4165 6.36739 18.4165 7.58568H14.3374C14.2287 6.08457 13.7174 5.02944 12.8037 4.4203C11.89 3.78939 10.7261 3.47394 9.31198 3.47394C8.83336 3.47394 8.34387 3.52833 7.8435 3.63711C7.34313 3.72413 6.88627 3.88729 6.47292 4.1266C6.05957 4.34415 5.71149 4.64873 5.42867 5.04032C5.16761 5.43191 5.03708 5.92141 5.03708 6.5088C5.03708 7.3355 5.28726 7.98815 5.78763 8.46677C6.30976 8.92363 6.98417 9.27171 7.81087 9.51102C7.89789 9.53277 8.23509 9.63067 8.82249 9.80471C9.43163 9.957 10.106 10.131 10.8457 10.3268C11.5854 10.5226 12.3033 10.7184 12.9995 10.9142C13.7174 11.0883 14.2287 11.2188 14.5332 11.3058C15.2947 11.5451 15.9582 11.8715 16.5238 12.2848C17.0895 12.6982 17.5572 13.1768 17.927 13.7207C18.3186 14.2428 18.6015 14.8084 18.7755 15.4176C18.9713 16.0267 19.0692 16.6359 19.0692 17.245C19.0692 18.5503 18.7973 19.6707 18.2534 20.6062C17.7313 21.5199 17.0351 22.2705 16.1649 22.8579C15.2947 23.4452 14.3048 23.8695 13.1953 24.1305C12.0858 24.4133 10.9545 24.5548 9.80147 24.5548C8.4744 24.5548 7.22348 24.3916 6.04869 24.0653C4.87391 23.7389 3.85142 23.2386 2.98121 22.5642C2.111 21.8897 1.41483 21.0304 0.892705 19.9862C0.370579 18.9202 0.098639 17.6692 0.0768837 16.2334H4.15599ZM20.4214 7.12882H23.2278V2.07073H26.948V7.12882H30.3092V9.90261H26.948V18.9093C26.948 19.3009 26.9589 19.6381 26.9806 19.9209C27.0241 20.2037 27.1003 20.443 27.209 20.6388C27.3396 20.8346 27.5245 20.9869 27.7638 21.0957C28.0031 21.1827 28.3294 21.2262 28.7428 21.2262C29.0039 21.2262 29.2649 21.2262 29.526 21.2262C29.787 21.2045 30.0481 21.1609 30.3092 21.0957V23.9674C29.8958 24.0109 29.4933 24.0544 29.1018 24.0979C28.7102 24.1414 28.3077 24.1632 27.8943 24.1632C26.9154 24.1632 26.1213 24.0761 25.5121 23.9021C24.9248 23.7063 24.457 23.4344 24.1089 23.0863C23.7826 22.7164 23.5542 22.2596 23.4236 21.7157C23.3149 21.1718 23.2496 20.5518 23.2278 19.8556V9.90261H20.4214V7.12882ZM32.9853 7.12882H36.477V10.3921H36.5423C36.6511 9.93525 36.8577 9.48926 37.1623 9.05416C37.4887 8.61905 37.8694 8.22746 38.3045 7.87938C38.7613 7.50954 39.2617 7.21584 39.8056 6.99829C40.3495 6.78074 40.9042 6.67196 41.4699 6.67196C41.905 6.67196 42.1987 6.68284 42.3509 6.70459C42.525 6.72635 42.699 6.7481 42.8731 6.76986V10.3595C42.612 10.316 42.3401 10.2833 42.0572 10.2616C41.7962 10.2181 41.5351 10.1963 41.2741 10.1963C40.6432 10.1963 40.0449 10.3268 39.4793 10.5879C38.9354 10.8272 38.4568 11.197 38.0434 11.6974C37.6301 12.176 37.3037 12.7743 37.0644 13.4922C36.8251 14.2101 36.7055 15.0368 36.7055 15.9723V24H32.9853V7.12882ZM58.5878 20.2472C58.5878 20.7041 58.6422 21.0304 58.751 21.2262C58.8815 21.422 59.1208 21.5199 59.4689 21.5199C59.5777 21.5199 59.7082 21.5199 59.8605 21.5199C60.0128 21.5199 60.1868 21.4981 60.3826 21.4546V24.0326C60.2521 24.0761 60.0781 24.1197 59.8605 24.1632C59.6647 24.2284 59.458 24.2828 59.2405 24.3263C59.0229 24.3698 58.8054 24.4025 58.5878 24.4242C58.3703 24.446 58.1853 24.4569 58.0331 24.4569C57.2716 24.4569 56.6407 24.3046 56.1404 24C55.64 23.6954 55.3137 23.1624 55.1614 22.401C54.4217 23.1189 53.508 23.641 52.4202 23.9674C51.3542 24.2937 50.3208 24.4569 49.3201 24.4569C48.5587 24.4569 47.8299 24.3481 47.1337 24.1305C46.4375 23.9347 45.8175 23.641 45.2736 23.2494C44.7515 22.8361 44.3273 22.3248 44.0009 21.7157C43.6964 21.0848 43.5441 20.356 43.5441 19.5293C43.5441 18.4851 43.729 17.6366 44.0988 16.9839C44.4904 16.3313 44.9908 15.82 45.5999 15.4502C46.2308 15.0804 46.927 14.8193 47.6885 14.667C48.4716 14.493 49.2548 14.3624 50.038 14.2754C50.7124 14.1449 51.3542 14.0579 51.9634 14.0144C52.5725 13.9491 53.1055 13.8512 53.5624 13.7207C54.041 13.5901 54.4108 13.3943 54.6719 13.1333C54.9547 12.8504 55.0961 12.4371 55.0961 11.8932C55.0961 11.4146 54.9765 11.023 54.7371 10.7184C54.5196 10.4139 54.2368 10.1854 53.8887 10.0331C53.5624 9.8591 53.1925 9.75033 52.7792 9.70682C52.3658 9.64155 51.9742 9.60892 51.6044 9.60892C50.5601 9.60892 49.7008 9.82647 49.0264 10.2616C48.352 10.6967 47.9713 11.3711 47.8842 12.2848H44.1641C44.2294 11.197 44.4904 10.2942 44.9473 9.57628C45.4042 8.85836 45.9807 8.28185 46.6768 7.84674C47.3948 7.41164 48.1997 7.10707 49.0917 6.93303C49.9836 6.75898 50.8973 6.67196 51.8328 6.67196C52.6595 6.67196 53.4753 6.75898 54.2803 6.93303C55.0852 7.10707 55.8031 7.38988 56.4341 7.78148C57.0867 8.17307 57.6088 8.68432 58.0004 9.31522C58.392 9.92437 58.5878 10.6749 58.5878 11.5669V20.2472ZM54.8677 15.5481C54.302 15.9179 53.6059 16.1464 52.7792 16.2334C51.9525 16.2986 51.1258 16.4074 50.2991 16.5597C49.9075 16.625 49.5268 16.7229 49.1569 16.8534C48.7871 16.9622 48.4608 17.1253 48.1779 17.3429C47.8951 17.5387 47.6667 17.8106 47.4927 18.1587C47.3404 18.4851 47.2642 18.8875 47.2642 19.3661C47.2642 19.7795 47.3839 20.1276 47.6232 20.4104C47.8625 20.6932 48.1453 20.9216 48.4716 21.0957C48.8197 21.248 49.1896 21.3567 49.5812 21.422C49.9945 21.4873 50.3643 21.5199 50.6907 21.5199C51.104 21.5199 51.55 21.4655 52.0286 21.3567C52.5072 21.248 52.9532 21.063 53.3666 20.802C53.8017 20.5409 54.1606 20.2146 54.4434 19.823C54.7263 19.4096 54.8677 18.9093 54.8677 18.3219V15.5481ZM60.8938 7.12882H63.7002V2.07073H67.4204V7.12882H70.7815V9.90261H67.4204V18.9093C67.4204 19.3009 67.4312 19.6381 67.453 19.9209C67.4965 20.2037 67.5726 20.443 67.6814 20.6388C67.8119 20.8346 67.9969 20.9869 68.2362 21.0957C68.4755 21.1827 68.8018 21.2262 69.2152 21.2262C69.4762 21.2262 69.7373 21.2262 69.9983 21.2262C70.2594 21.2045 70.5205 21.1609 70.7815 21.0957V23.9674C70.3682 24.0109 69.9657 24.0544 69.5741 24.0979C69.1825 24.1414 68.7801 24.1632 68.3667 24.1632C67.3877 24.1632 66.5937 24.0761 65.9845 23.9021C65.3971 23.7063 64.9294 23.4344 64.5813 23.0863C64.255 22.7164 64.0265 22.2596 63.896 21.7157C63.7872 21.1718 63.722 20.5518 63.7002 19.8556V9.90261H60.8938V7.12882ZM85.0423 14.0796C84.9988 13.4922 84.8683 12.9266 84.6508 12.3827C84.455 11.8388 84.1721 11.3711 83.8023 10.9795C83.4542 10.5661 83.0191 10.2398 82.497 10.0005C81.9966 9.73945 81.431 9.60892 80.8001 9.60892C80.1474 9.60892 79.5492 9.72857 79.0053 9.96788C78.4831 10.1854 78.0263 10.5009 77.6347 10.9142C77.2649 11.3058 76.9603 11.7736 76.721 12.3174C76.5034 12.8613 76.3838 13.4487 76.362 14.0796H85.0423ZM76.362 16.5271C76.362 17.1797 76.449 17.8106 76.6231 18.4198C76.8189 19.0289 77.1017 19.5619 77.4715 20.0188C77.8414 20.4757 78.3091 20.8455 78.8747 21.1283C79.4404 21.3894 80.1148 21.5199 80.898 21.5199C81.9857 21.5199 82.8559 21.2915 83.5086 20.8346C84.183 20.356 84.6834 19.649 85.0097 18.7135H88.5341C88.3383 19.6272 88.0011 20.443 87.5224 21.1609C87.0438 21.8789 86.4673 22.488 85.7929 22.9884C85.1185 23.467 84.3571 23.826 83.5086 24.0653C82.6819 24.3263 81.8117 24.4569 80.898 24.4569C79.5709 24.4569 78.3961 24.2393 77.3736 23.8042C76.3511 23.3691 75.4809 22.76 74.763 21.9768C74.0668 21.1936 73.5338 20.2581 73.164 19.1703C72.8159 18.0826 72.6419 16.886 72.6419 15.5807C72.6419 14.3842 72.8268 13.2529 73.1966 12.1869C73.5882 11.0992 74.1321 10.1528 74.8283 9.34785C75.5462 8.52116 76.4055 7.8685 77.4063 7.38988C78.407 6.91127 79.5383 6.67196 80.8001 6.67196C82.1271 6.67196 83.3128 6.95478 84.3571 7.52042C85.4231 8.0643 86.3041 8.7931 87.0003 9.70682C87.6965 10.6205 88.1969 11.6757 88.5014 12.8722C88.8278 14.047 88.9148 15.2653 88.7625 16.5271H76.362ZM107.189 23.1189C107.189 25.6643 106.471 27.557 105.035 28.797C103.621 30.0588 101.576 30.6897 98.9003 30.6897C98.0519 30.6897 97.1926 30.6027 96.3223 30.4287C95.4739 30.2546 94.6907 29.9609 93.9728 29.5476C93.2766 29.1342 92.6892 28.5904 92.2106 27.9159C91.732 27.2415 91.4492 26.4148 91.3622 25.4358H95.0823C95.1911 25.958 95.376 26.3822 95.6371 26.7085C95.8981 27.0349 96.2027 27.285 96.5508 27.4591C96.9206 27.6549 97.3231 27.7745 97.7582 27.818C98.1933 27.8833 98.6502 27.9159 99.1288 27.9159C100.63 27.9159 101.729 27.5461 102.425 26.8064C103.121 26.0667 103.469 25.0007 103.469 23.6084V21.0304H103.404C102.882 21.9659 102.164 22.6947 101.25 23.2168C100.358 23.7389 99.3898 24 98.3456 24C96.9968 24 95.8437 23.7716 94.8865 23.3147C93.951 22.8361 93.1678 22.1943 92.5369 21.3894C91.9278 20.5627 91.4818 19.6163 91.199 18.5503C90.9162 17.4843 90.7748 16.3422 90.7748 15.1239C90.7748 13.9926 90.9488 12.9157 91.2969 11.8932C91.645 10.8707 92.1453 9.97876 92.798 9.21732C93.4507 8.43414 94.2447 7.81411 95.1802 7.35725C96.1374 6.90039 97.2143 6.67196 98.4108 6.67196C99.4769 6.67196 100.456 6.90039 101.348 7.35725C102.24 7.79236 102.925 8.48852 103.404 9.44575H103.469V7.12882H107.189V23.1189ZM98.933 21.063C99.7597 21.063 100.456 20.8999 101.021 20.5736C101.609 20.2255 102.077 19.7795 102.425 19.2356C102.795 18.67 103.056 18.0391 103.208 17.3429C103.382 16.625 103.469 15.9071 103.469 15.1891C103.469 14.4712 103.382 13.775 103.208 13.1006C103.034 12.4262 102.762 11.828 102.392 11.3058C102.044 10.7837 101.576 10.3704 100.989 10.0658C100.423 9.7612 99.7379 9.60892 98.933 9.60892C98.1063 9.60892 97.4101 9.78296 96.8445 10.131C96.2788 10.4791 95.822 10.936 95.4739 11.5016C95.1258 12.0455 94.8756 12.6764 94.7233 13.3943C94.5711 14.0905 94.4949 14.7867 94.4949 15.4828C94.4949 16.179 94.5819 16.8643 94.756 17.5387C94.93 18.1914 95.1911 18.7787 95.5392 19.3009C95.909 19.823 96.3659 20.2472 96.9097 20.5736C97.4754 20.8999 98.1498 21.063 98.933 21.063ZM109.074 7.12882H113.153L117.559 19.7251H117.624L121.899 7.12882H125.782L119.223 24.9137C118.919 25.6752 118.614 26.404 118.309 27.1001C118.027 27.7963 117.668 28.4054 117.233 28.9276C116.819 29.4714 116.297 29.8957 115.666 30.2002C115.035 30.5266 114.23 30.6897 113.251 30.6897C112.381 30.6897 111.522 30.6245 110.673 30.4939V27.3612C110.978 27.4047 111.272 27.4482 111.554 27.4917C111.837 27.557 112.131 27.5896 112.436 27.5896C112.871 27.5896 113.23 27.5352 113.512 27.4264C113.795 27.3177 114.024 27.1545 114.198 26.937C114.394 26.7412 114.557 26.5019 114.687 26.219C114.818 25.9362 114.937 25.6099 115.046 25.24L115.47 23.9347L109.074 7.12882Z" fill="#FFFE03"/>
</svg>
