<svg width="246" height="31" viewBox="0 0 246 31" fill="none" xmlns="http://www.w3.org/2000/svg">
<path d="M0.219033 0.700151H4.29814V14.2754C4.29814 15.0586 4.33077 15.8527 4.39604 16.6576C4.48306 17.4626 4.70061 18.1914 5.04869 18.844C5.41853 19.4749 5.96241 19.997 6.68034 20.4104C7.42001 20.8237 8.45339 21.0304 9.78046 21.0304C11.1075 21.0304 12.13 20.8237 12.8479 20.4104C13.5876 19.997 14.1315 19.4749 14.4796 18.844C14.8494 18.1914 15.067 17.4626 15.1322 16.6576C15.2193 15.8527 15.2628 15.0586 15.2628 14.2754V0.700151H19.3419V15.6134C19.3419 17.1145 19.1134 18.4198 18.6566 19.5293C18.1997 20.6388 17.5471 21.5743 16.6986 22.3357C15.8719 23.0754 14.8712 23.6302 13.6964 24C12.5216 24.3698 11.2163 24.5548 9.78046 24.5548C8.34461 24.5548 7.0393 24.3698 5.86451 24C4.68973 23.6302 3.67811 23.0754 2.82966 22.3357C2.00296 21.5743 1.36118 20.6388 0.904323 19.5293C0.447463 18.4198 0.219033 17.1145 0.219033 15.6134V0.700151ZM26.3149 18.5829C26.4236 19.6707 26.837 20.4321 27.5549 20.8672C28.2728 21.3024 29.1322 21.5199 30.1329 21.5199C30.481 21.5199 30.8726 21.4981 31.3077 21.4546C31.7645 21.3894 32.1888 21.2806 32.5804 21.1283C32.972 20.976 33.2874 20.7585 33.5267 20.4757C33.7878 20.1711 33.9074 19.7795 33.8857 19.3009C33.8639 18.8223 33.6899 18.4307 33.3635 18.1261C33.0372 17.8215 32.613 17.5822 32.0909 17.4082C31.5905 17.2124 31.014 17.0492 30.3613 16.9187C29.7087 16.7881 29.0451 16.6467 28.3707 16.4944C27.6746 16.3422 27.0001 16.1572 26.3475 15.9397C25.7166 15.7221 25.1401 15.4284 24.6179 15.0586C24.1176 14.6888 23.7151 14.221 23.4105 13.6554C23.106 13.068 22.9537 12.3501 22.9537 11.5016C22.9537 10.5879 23.1712 9.82647 23.6063 9.21732C24.0632 8.58642 24.6288 8.08605 25.3032 7.71621C25.9994 7.32462 26.7608 7.05268 27.5875 6.90039C28.436 6.7481 29.2409 6.67196 30.0024 6.67196C30.8726 6.67196 31.6993 6.76986 32.4825 6.96566C33.2874 7.1397 34.0053 7.43339 34.6362 7.84674C35.2889 8.26009 35.8219 8.80397 36.2352 9.47839C36.6703 10.131 36.9423 10.9251 37.0511 11.8606H33.1677C32.9937 10.9686 32.5804 10.3704 31.9277 10.0658C31.2968 9.7612 30.568 9.60892 29.7413 9.60892C29.4802 9.60892 29.1648 9.63067 28.7949 9.67418C28.4469 9.71769 28.1097 9.80471 27.7833 9.93525C27.4788 10.044 27.2177 10.2181 27.0001 10.4574C26.7826 10.6749 26.6738 10.9686 26.6738 11.3385C26.6738 11.7953 26.8261 12.1652 27.1307 12.448C27.457 12.7308 27.8704 12.9701 28.3707 13.1659C28.8928 13.3399 29.4802 13.4922 30.1329 13.6228C30.7856 13.7533 31.46 13.8947 32.1561 14.047C32.8305 14.1993 33.4941 14.3842 34.1467 14.6017C34.7994 14.8193 35.3759 15.113 35.8763 15.4828C36.3984 15.8527 36.8117 16.3204 37.1163 16.886C37.4427 17.4517 37.6058 18.1478 37.6058 18.9745C37.6058 19.9753 37.3774 20.8237 36.9205 21.5199C36.4637 22.2161 35.8654 22.7817 35.1257 23.2168C34.4078 23.6519 33.6029 23.9674 32.7109 24.1632C31.8189 24.359 30.9378 24.4569 30.0676 24.4569C29.0016 24.4569 28.0118 24.3372 27.098 24.0979C26.2061 23.8586 25.4229 23.4996 24.7485 23.021C24.0958 22.5206 23.5737 21.9115 23.1821 21.1936C22.8123 20.4539 22.6165 19.5837 22.5947 18.5829H26.3149ZM52.015 14.0796C51.9715 13.4922 51.841 12.9266 51.6234 12.3827C51.4276 11.8388 51.1448 11.3711 50.7749 10.9795C50.4269 10.5661 49.9918 10.2398 49.4696 10.0005C48.9693 9.73945 48.4036 9.60892 47.7727 9.60892C47.1201 9.60892 46.5218 9.72857 45.9779 9.96788C45.4558 10.1854 44.9989 10.5009 44.6073 10.9142C44.2375 11.3058 43.9329 11.7736 43.6936 12.3174C43.4761 12.8613 43.3564 13.4487 43.3347 14.0796H52.015ZM43.3347 16.5271C43.3347 17.1797 43.4217 17.8106 43.5957 18.4198C43.7915 19.0289 44.0743 19.5619 44.4442 20.0188C44.814 20.4757 45.2818 20.8455 45.8474 21.1283C46.413 21.3894 47.0874 21.5199 47.8706 21.5199C48.9584 21.5199 49.8286 21.2915 50.4813 20.8346C51.1557 20.356 51.656 19.649 51.9824 18.7135H55.5067C55.3109 19.6272 54.9737 20.443 54.4951 21.1609C54.0165 21.8789 53.44 22.488 52.7656 22.9884C52.0911 23.467 51.3297 23.826 50.4813 24.0653C49.6546 24.3263 48.7843 24.4569 47.8706 24.4569C46.5436 24.4569 45.3688 24.2393 44.3463 23.8042C43.3238 23.3691 42.4536 22.76 41.7357 21.9768C41.0395 21.1936 40.5065 20.2581 40.1366 19.1703C39.7886 18.0826 39.6145 16.886 39.6145 15.5807C39.6145 14.3842 39.7994 13.2529 40.1693 12.1869C40.5609 11.0992 41.1047 10.1528 41.8009 9.34785C42.5188 8.52116 43.3782 7.8685 44.3789 7.38988C45.3797 6.91127 46.5109 6.67196 47.7727 6.67196C49.0998 6.67196 50.2855 6.95478 51.3297 7.52042C52.3957 8.0643 53.2768 8.7931 53.973 9.70682C54.6691 10.6205 55.1695 11.6757 55.4741 12.8722C55.8004 14.047 55.8874 15.2653 55.7351 16.5271H43.3347ZM58.5632 7.12882H62.0549V10.3921H62.1202C62.229 9.93525 62.4357 9.48926 62.7402 9.05416C63.0666 8.61905 63.4473 8.22746 63.8824 7.87938C64.3392 7.50954 64.8396 7.21584 65.3835 6.99829C65.9274 6.78074 66.4821 6.67196 67.0478 6.67196C67.4829 6.67196 67.7766 6.68284 67.9289 6.70459C68.1029 6.72635 68.2769 6.7481 68.451 6.76986V10.3595C68.1899 10.316 67.918 10.2833 67.6352 10.2616C67.3741 10.2181 67.113 10.1963 66.852 10.1963C66.2211 10.1963 65.6228 10.3268 65.0572 10.5879C64.5133 10.8272 64.0347 11.197 63.6213 11.6974C63.208 12.176 62.8816 12.7743 62.6423 13.4922C62.403 14.2101 62.2834 15.0368 62.2834 15.9723V24H58.5632V7.12882ZM79.6402 0.700151H96.4135V4.2245H83.7193V10.3268H95.4672V13.6554H83.7193V20.4757H96.6419V24H79.6402V0.700151ZM104.209 15.1239L98.3677 7.12882H102.871L106.395 12.3174L110.083 7.12882H114.39L108.647 14.9281L115.108 24H110.638L106.363 17.7671L102.218 24H97.8455L104.209 15.1239ZM117.298 7.12882H120.823V9.41312H120.888C121.41 8.43414 122.139 7.73797 123.074 7.32462C124.01 6.88951 125.021 6.67196 126.109 6.67196C127.436 6.67196 128.589 6.91127 129.568 7.38988C130.569 7.84674 131.396 8.48852 132.048 9.31522C132.701 10.1202 133.19 11.0665 133.517 12.1543C133.843 13.242 134.006 14.4059 134.006 15.646C134.006 16.7773 133.854 17.8759 133.549 18.9419C133.267 20.0079 132.821 20.9543 132.211 21.781C131.624 22.5859 130.874 23.2386 129.96 23.7389C129.046 24.2176 127.969 24.4569 126.729 24.4569C126.185 24.4569 125.641 24.4025 125.098 24.2937C124.554 24.2067 124.032 24.0544 123.531 23.8368C123.031 23.6193 122.563 23.3473 122.128 23.021C121.715 22.6729 121.366 22.2705 121.084 21.8136H121.018V30.2329H117.298V7.12882ZM130.286 15.5807C130.286 14.8193 130.188 14.0796 129.992 13.3617C129.797 12.6438 129.503 12.0129 129.111 11.469C128.72 10.9034 128.23 10.4574 127.643 10.131C127.055 9.78296 126.381 9.60892 125.62 9.60892C124.053 9.60892 122.868 10.1528 122.063 11.2406C121.279 12.3283 120.888 13.775 120.888 15.5807C120.888 16.4292 120.986 17.2232 121.182 17.9629C121.399 18.6808 121.715 19.3009 122.128 19.823C122.541 20.3451 123.031 20.7585 123.596 21.063C124.184 21.3676 124.858 21.5199 125.62 21.5199C126.468 21.5199 127.186 21.3459 127.773 20.9978C128.361 20.6497 128.839 20.2037 129.209 19.6598C129.601 19.0942 129.873 18.4633 130.025 17.7671C130.199 17.0492 130.286 16.3204 130.286 15.5807ZM148.734 14.0796C148.691 13.4922 148.56 12.9266 148.343 12.3827C148.147 11.8388 147.864 11.3711 147.494 10.9795C147.146 10.5661 146.711 10.2398 146.189 10.0005C145.689 9.73945 145.123 9.60892 144.492 9.60892C143.839 9.60892 143.241 9.72857 142.697 9.96788C142.175 10.1854 141.718 10.5009 141.327 10.9142C140.957 11.3058 140.652 11.7736 140.413 12.3174C140.195 12.8613 140.076 13.4487 140.054 14.0796H148.734ZM140.054 16.5271C140.054 17.1797 140.141 17.8106 140.315 18.4198C140.511 19.0289 140.794 19.5619 141.164 20.0188C141.533 20.4757 142.001 20.8455 142.567 21.1283C143.132 21.3894 143.807 21.5199 144.59 21.5199C145.678 21.5199 146.548 21.2915 147.201 20.8346C147.875 20.356 148.375 19.649 148.702 18.7135H152.226C152.03 19.6272 151.693 20.443 151.214 21.1609C150.736 21.8789 150.159 22.488 149.485 22.9884C148.811 23.467 148.049 23.826 147.201 24.0653C146.374 24.3263 145.504 24.4569 144.59 24.4569C143.263 24.4569 142.088 24.2393 141.066 23.8042C140.043 23.3691 139.173 22.76 138.455 21.9768C137.759 21.1936 137.226 20.2581 136.856 19.1703C136.508 18.0826 136.334 16.886 136.334 15.5807C136.334 14.3842 136.519 13.2529 136.889 12.1869C137.28 11.0992 137.824 10.1528 138.52 9.34785C139.238 8.52116 140.098 7.8685 141.098 7.38988C142.099 6.91127 143.23 6.67196 144.492 6.67196C145.819 6.67196 147.005 6.95478 148.049 7.52042C149.115 8.0643 149.996 8.7931 150.692 9.70682C151.389 10.6205 151.889 11.6757 152.193 12.8722C152.52 14.047 152.607 15.2653 152.455 16.5271H140.054ZM155.283 7.12882H158.774V10.3921H158.84C158.948 9.93525 159.155 9.48926 159.46 9.05416C159.786 8.61905 160.167 8.22746 160.602 7.87938C161.059 7.50954 161.559 7.21584 162.103 6.99829C162.647 6.78074 163.202 6.67196 163.767 6.67196C164.202 6.67196 164.496 6.68284 164.648 6.70459C164.822 6.72635 164.996 6.7481 165.17 6.76986V10.3595C164.909 10.316 164.637 10.2833 164.355 10.2616C164.094 10.2181 163.832 10.1963 163.571 10.1963C162.94 10.1963 162.342 10.3268 161.777 10.5879C161.233 10.8272 160.754 11.197 160.341 11.6974C159.927 12.176 159.601 12.7743 159.362 13.4922C159.122 14.2101 159.003 15.0368 159.003 15.9723V24H155.283V7.12882ZM166.853 0.700151H170.573V4.2245H166.853V0.700151ZM166.853 7.12882H170.573V24H166.853V7.12882ZM186.211 14.0796C186.168 13.4922 186.037 12.9266 185.82 12.3827C185.624 11.8388 185.341 11.3711 184.971 10.9795C184.623 10.5661 184.188 10.2398 183.666 10.0005C183.165 9.73945 182.6 9.60892 181.969 9.60892C181.316 9.60892 180.718 9.72857 180.174 9.96788C179.652 10.1854 179.195 10.5009 178.804 10.9142C178.434 11.3058 178.129 11.7736 177.89 12.3174C177.672 12.8613 177.553 13.4487 177.531 14.0796H186.211ZM177.531 16.5271C177.531 17.1797 177.618 17.8106 177.792 18.4198C177.988 19.0289 178.271 19.5619 178.64 20.0188C179.01 20.4757 179.478 20.8455 180.044 21.1283C180.609 21.3894 181.284 21.5199 182.067 21.5199C183.155 21.5199 184.025 21.2915 184.677 20.8346C185.352 20.356 185.852 19.649 186.179 18.7135H189.703C189.507 19.6272 189.17 20.443 188.691 21.1609C188.213 21.8789 187.636 22.488 186.962 22.9884C186.287 23.467 185.526 23.826 184.677 24.0653C183.851 24.3263 182.981 24.4569 182.067 24.4569C180.74 24.4569 179.565 24.2393 178.542 23.8042C177.52 23.3691 176.65 22.76 175.932 21.9768C175.236 21.1936 174.703 20.2581 174.333 19.1703C173.985 18.0826 173.811 16.886 173.811 15.5807C173.811 14.3842 173.996 13.2529 174.365 12.1869C174.757 11.0992 175.301 10.1528 175.997 9.34785C176.715 8.52116 177.574 7.8685 178.575 7.38988C179.576 6.91127 180.707 6.67196 181.969 6.67196C183.296 6.67196 184.482 6.95478 185.526 7.52042C186.592 8.0643 187.473 8.7931 188.169 9.70682C188.865 10.6205 189.366 11.6757 189.67 12.8722C189.997 14.047 190.084 15.2653 189.931 16.5271H177.531ZM192.759 7.12882H196.284V9.60892L196.349 9.67418C196.915 8.73871 197.654 8.00991 198.568 7.48778C199.482 6.9439 200.493 6.67196 201.603 6.67196C203.452 6.67196 204.91 7.15058 205.976 8.10781C207.042 9.06504 207.575 10.5009 207.575 12.4153V24H203.855V13.3943C203.811 12.0673 203.528 11.11 203.006 10.5226C202.484 9.91349 201.668 9.60892 200.559 9.60892C199.928 9.60892 199.362 9.72857 198.862 9.96788C198.361 10.1854 197.937 10.5009 197.589 10.9142C197.241 11.3058 196.969 11.7736 196.773 12.3174C196.577 12.8613 196.48 13.4378 196.48 14.047V24H192.759V7.12882ZM222.887 12.7743C222.734 11.7301 222.31 10.9469 221.614 10.4247C220.94 9.88086 220.08 9.60892 219.036 9.60892C218.557 9.60892 218.046 9.69594 217.502 9.86998C216.958 10.0223 216.458 10.3268 216.001 10.7837C215.544 11.2188 215.164 11.8388 214.859 12.6438C214.554 13.427 214.402 14.4603 214.402 15.7439C214.402 16.4401 214.478 17.1362 214.631 17.8324C214.805 18.5286 215.066 19.1486 215.414 19.6925C215.784 20.2363 216.251 20.6823 216.817 21.0304C217.383 21.3567 218.068 21.5199 218.873 21.5199C219.961 21.5199 220.853 21.1827 221.549 20.5083C222.267 19.8339 222.713 18.8875 222.887 17.6692H226.607C226.259 19.8665 225.421 21.5525 224.094 22.7273C222.789 23.8803 221.048 24.4569 218.873 24.4569C217.546 24.4569 216.371 24.2393 215.348 23.8042C214.348 23.3473 213.499 22.7382 212.803 21.9768C212.107 21.1936 211.574 20.269 211.204 19.203C210.856 18.137 210.682 16.9839 210.682 15.7439C210.682 14.4821 210.856 13.2964 211.204 12.1869C211.552 11.0774 212.074 10.1202 212.77 9.31522C213.467 8.48852 214.326 7.84674 215.348 7.38988C216.393 6.91127 217.611 6.67196 219.003 6.67196C219.982 6.67196 220.907 6.80249 221.777 7.06355C222.669 7.30286 223.452 7.6727 224.127 8.17307C224.823 8.67344 225.389 9.30434 225.824 10.0658C226.259 10.8272 226.52 11.7301 226.607 12.7743H222.887ZM241.215 14.0796C241.172 13.4922 241.041 12.9266 240.824 12.3827C240.628 11.8388 240.345 11.3711 239.975 10.9795C239.627 10.5661 239.192 10.2398 238.67 10.0005C238.17 9.73945 237.604 9.60892 236.973 9.60892C236.32 9.60892 235.722 9.72857 235.178 9.96788C234.656 10.1854 234.199 10.5009 233.808 10.9142C233.438 11.3058 233.133 11.7736 232.894 12.3174C232.676 12.8613 232.557 13.4487 232.535 14.0796H241.215ZM232.535 16.5271C232.535 17.1797 232.622 17.8106 232.796 18.4198C232.992 19.0289 233.275 19.5619 233.645 20.0188C234.014 20.4757 234.482 20.8455 235.048 21.1283C235.613 21.3894 236.288 21.5199 237.071 21.5199C238.159 21.5199 239.029 21.2915 239.682 20.8346C240.356 20.356 240.856 19.649 241.183 18.7135H244.707C244.511 19.6272 244.174 20.443 243.695 21.1609C243.217 21.8789 242.64 22.488 241.966 22.9884C241.292 23.467 240.53 23.826 239.682 24.0653C238.855 24.3263 237.985 24.4569 237.071 24.4569C235.744 24.4569 234.569 24.2393 233.547 23.8042C232.524 23.3691 231.654 22.76 230.936 21.9768C230.24 21.1936 229.707 20.2581 229.337 19.1703C228.989 18.0826 228.815 16.886 228.815 15.5807C228.815 14.3842 229 13.2529 229.37 12.1869C229.761 11.0992 230.305 10.1528 231.001 9.34785C231.719 8.52116 232.579 7.8685 233.579 7.38988C234.58 6.91127 235.711 6.67196 236.973 6.67196C238.3 6.67196 239.486 6.95478 240.53 7.52042C241.596 8.0643 242.477 8.7931 243.173 9.70682C243.869 10.6205 244.37 11.6757 244.674 12.8722C245.001 14.047 245.088 15.2653 244.936 16.5271H232.535Z" fill="#FFFE03"/>
</svg>
