<svg width="181" height="31" viewBox="0 0 181 31" fill="none" xmlns="http://www.w3.org/2000/svg">
<path d="M0.195797 0.700151H4.34017L8.5498 18.5177H8.61507L13.3142 0.700151H17.4912L22.0598 18.5177H22.1251L26.4652 0.700151H30.6096L24.1809 24H20.0366L15.3701 6.18247H15.3048L10.5404 24H6.33077L0.195797 0.700151ZM43.7854 14.0796C43.7419 13.4922 43.6113 12.9266 43.3938 12.3827C43.198 11.8388 42.9152 11.3711 42.5453 10.9795C42.1972 10.5661 41.7621 10.2398 41.24 10.0005C40.7396 9.73945 40.174 9.60892 39.5431 9.60892C38.8904 9.60892 38.2922 9.72857 37.7483 9.96788C37.2262 10.1854 36.7693 10.5009 36.3777 10.9142C36.0079 11.3058 35.7033 11.7736 35.464 12.3174C35.2464 12.8613 35.1268 13.4487 35.105 14.0796H43.7854ZM35.105 16.5271C35.105 17.1797 35.1921 17.8106 35.3661 18.4198C35.5619 19.0289 35.8447 19.5619 36.2145 20.0188C36.5844 20.4757 37.0521 20.8455 37.6178 21.1283C38.1834 21.3894 38.8578 21.5199 39.641 21.5199C40.7288 21.5199 41.599 21.2915 42.2516 20.8346C42.926 20.356 43.4264 19.649 43.7527 18.7135H47.2771C47.0813 19.6272 46.7441 20.443 46.2655 21.1609C45.7868 21.8789 45.2103 22.488 44.5359 22.9884C43.8615 23.467 43.1001 23.826 42.2516 24.0653C41.4249 24.3263 40.5547 24.4569 39.641 24.4569C38.3139 24.4569 37.1391 24.2393 36.1167 23.8042C35.0942 23.3691 34.2239 22.76 33.506 21.9768C32.8099 21.1936 32.2769 20.2581 31.907 19.1703C31.5589 18.0826 31.3849 16.886 31.3849 15.5807C31.3849 14.3842 31.5698 13.2529 31.9396 12.1869C32.3312 11.0992 32.8751 10.1528 33.5713 9.34785C34.2892 8.52116 35.1485 7.8685 36.1493 7.38988C37.15 6.91127 38.2813 6.67196 39.5431 6.67196C40.8702 6.67196 42.0558 6.95478 43.1001 7.52042C44.1661 8.0643 45.0472 8.7931 45.7433 9.70682C46.4395 10.6205 46.9399 11.6757 47.2444 12.8722C47.5708 14.047 47.6578 15.2653 47.5055 16.5271H35.105ZM50.4315 0.700151H54.1516V9.31522H54.2169C54.478 8.90187 54.7934 8.53203 55.1633 8.2057C55.5331 7.87938 55.9356 7.60744 56.3707 7.38988C56.8275 7.15058 57.2953 6.97653 57.7739 6.86776C58.2743 6.73723 58.7638 6.67196 59.2424 6.67196C60.5694 6.67196 61.7225 6.91127 62.7014 7.38988C63.7022 7.84674 64.5289 8.48852 65.1815 9.31522C65.8342 10.1202 66.3237 11.0665 66.65 12.1543C66.9764 13.242 67.1395 14.4059 67.1395 15.646C67.1395 16.7773 66.9872 17.8759 66.6827 18.9419C66.3998 20.0079 65.9539 20.9543 65.3447 21.781C64.7573 22.5859 64.0068 23.2386 63.093 23.7389C62.1793 24.2176 61.1024 24.4569 59.8624 24.4569C59.2968 24.4569 58.7202 24.4133 58.1329 24.3263C57.5672 24.2611 57.0233 24.1197 56.5012 23.9021C55.9791 23.6845 55.5005 23.4017 55.0654 23.0536C54.652 22.7056 54.3039 22.2487 54.0211 21.6831H53.9558V24H50.4315V0.700151ZM63.4194 15.5807C63.4194 14.8193 63.3215 14.0796 63.1257 13.3617C62.9299 12.6438 62.6362 12.0129 62.2446 11.469C61.853 10.9034 61.3635 10.4574 60.7761 10.131C60.1887 9.78296 59.5143 9.60892 58.7529 9.60892C57.1865 9.60892 56.0008 10.1528 55.1959 11.2406C54.4127 12.3283 54.0211 13.775 54.0211 15.5807C54.0211 16.4292 54.119 17.2232 54.3148 17.9629C54.5324 18.6808 54.8478 19.3009 55.2612 19.823C55.6745 20.3451 56.164 20.7585 56.7296 21.063C57.317 21.3676 57.9914 21.5199 58.7529 21.5199C59.6013 21.5199 60.3193 21.3459 60.9066 20.9978C61.494 20.6497 61.9727 20.2037 62.3425 19.6598C62.7341 19.0942 63.006 18.4633 63.1583 17.7671C63.3324 17.0492 63.4194 16.3204 63.4194 15.5807ZM79.8875 0.700151H89.5468C91.3307 0.700151 92.8754 1.00472 94.1807 1.61387C95.486 2.22302 96.552 3.06059 97.3787 4.1266C98.2054 5.17085 98.8145 6.40002 99.2061 7.81411C99.6195 9.2282 99.8262 10.7402 99.8262 12.3501C99.8262 13.96 99.6195 15.472 99.2061 16.886C98.8145 18.3001 98.2054 19.5402 97.3787 20.6062C96.552 21.6504 95.486 22.4771 94.1807 23.0863C92.8754 23.6954 91.3307 24 89.5468 24H79.8875V0.700151ZM83.9666 20.6715H87.9804C89.5686 20.6715 90.863 20.4648 91.8637 20.0514C92.8862 19.6163 93.6803 19.0289 94.2459 18.2893C94.8333 17.5278 95.2249 16.6467 95.4207 15.646C95.6383 14.6235 95.7471 13.5249 95.7471 12.3501C95.7471 11.1753 95.6383 10.0875 95.4207 9.08679C95.2249 8.0643 94.8333 7.18321 94.2459 6.44353C93.6803 5.6821 92.8862 5.09471 91.8637 4.68136C90.863 4.24625 89.5686 4.0287 87.9804 4.0287H83.9666V20.6715ZM114.5 14.0796C114.457 13.4922 114.326 12.9266 114.109 12.3827C113.913 11.8388 113.63 11.3711 113.26 10.9795C112.912 10.5661 112.477 10.2398 111.955 10.0005C111.455 9.73945 110.889 9.60892 110.258 9.60892C109.606 9.60892 109.007 9.72857 108.463 9.96788C107.941 10.1854 107.484 10.5009 107.093 10.9142C106.723 11.3058 106.418 11.7736 106.179 12.3174C105.962 12.8613 105.842 13.4487 105.82 14.0796H114.5ZM105.82 16.5271C105.82 17.1797 105.907 17.8106 106.081 18.4198C106.277 19.0289 106.56 19.5619 106.93 20.0188C107.299 20.4757 107.767 20.8455 108.333 21.1283C108.899 21.3894 109.573 21.5199 110.356 21.5199C111.444 21.5199 112.314 21.2915 112.967 20.8346C113.641 20.356 114.142 19.649 114.468 18.7135H117.992C117.796 19.6272 117.459 20.443 116.981 21.1609C116.502 21.8789 115.925 22.488 115.251 22.9884C114.577 23.467 113.815 23.826 112.967 24.0653C112.14 24.3263 111.27 24.4569 110.356 24.4569C109.029 24.4569 107.854 24.2393 106.832 23.8042C105.809 23.3691 104.939 22.76 104.221 21.9768C103.525 21.1936 102.992 20.2581 102.622 19.1703C102.274 18.0826 102.1 16.886 102.1 15.5807C102.1 14.3842 102.285 13.2529 102.655 12.1869C103.046 11.0992 103.59 10.1528 104.286 9.34785C105.004 8.52116 105.864 7.8685 106.864 7.38988C107.865 6.91127 108.996 6.67196 110.258 6.67196C111.585 6.67196 112.771 6.95478 113.815 7.52042C114.881 8.0643 115.762 8.7931 116.458 9.70682C117.155 10.6205 117.655 11.6757 117.96 12.8722C118.286 14.047 118.373 15.2653 118.221 16.5271H105.82ZM123.855 18.5829C123.964 19.6707 124.377 20.4321 125.095 20.8672C125.813 21.3024 126.672 21.5199 127.673 21.5199C128.021 21.5199 128.413 21.4981 128.848 21.4546C129.305 21.3894 129.729 21.2806 130.121 21.1283C130.512 20.976 130.828 20.7585 131.067 20.4757C131.328 20.1711 131.448 19.7795 131.426 19.3009C131.404 18.8223 131.23 18.4307 130.904 18.1261C130.578 17.8215 130.153 17.5822 129.631 17.4082C129.131 17.2124 128.554 17.0492 127.902 16.9187C127.249 16.7881 126.585 16.6467 125.911 16.4944C125.215 16.3422 124.54 16.1572 123.888 15.9397C123.257 15.7221 122.68 15.4284 122.158 15.0586C121.658 14.6888 121.255 14.221 120.951 13.6554C120.646 13.068 120.494 12.3501 120.494 11.5016C120.494 10.5879 120.712 9.82647 121.147 9.21732C121.603 8.58642 122.169 8.08605 122.844 7.71621C123.54 7.32462 124.301 7.05268 125.128 6.90039C125.976 6.7481 126.781 6.67196 127.543 6.67196C128.413 6.67196 129.24 6.76986 130.023 6.96566C130.828 7.1397 131.546 7.43339 132.177 7.84674C132.829 8.26009 133.362 8.80397 133.776 9.47839C134.211 10.131 134.483 10.9251 134.591 11.8606H130.708C130.534 10.9686 130.121 10.3704 129.468 10.0658C128.837 9.7612 128.108 9.60892 127.282 9.60892C127.021 9.60892 126.705 9.63067 126.335 9.67418C125.987 9.71769 125.65 9.80471 125.324 9.93525C125.019 10.044 124.758 10.2181 124.54 10.4574C124.323 10.6749 124.214 10.9686 124.214 11.3385C124.214 11.7953 124.366 12.1652 124.671 12.448C124.997 12.7308 125.411 12.9701 125.911 13.1659C126.433 13.3399 127.021 13.4922 127.673 13.6228C128.326 13.7533 129 13.8947 129.696 14.047C130.371 14.1993 131.034 14.3842 131.687 14.6017C132.34 14.8193 132.916 15.113 133.417 15.4828C133.939 15.8527 134.352 16.3204 134.657 16.886C134.983 17.4517 135.146 18.1478 135.146 18.9745C135.146 19.9753 134.918 20.8237 134.461 21.5199C134.004 22.2161 133.406 22.7817 132.666 23.2168C131.948 23.6519 131.143 23.9674 130.251 24.1632C129.359 24.359 128.478 24.4569 127.608 24.4569C126.542 24.4569 125.552 24.3372 124.638 24.0979C123.746 23.8586 122.963 23.4996 122.289 23.021C121.636 22.5206 121.114 21.9115 120.722 21.1936C120.353 20.4539 120.157 19.5837 120.135 18.5829H123.855ZM138.069 0.700151H141.789V4.2245H138.069V0.700151ZM138.069 7.12882H141.789V24H138.069V7.12882ZM161.441 23.1189C161.441 25.6643 160.723 27.557 159.287 28.797C157.873 30.0588 155.828 30.6897 153.152 30.6897C152.303 30.6897 151.444 30.6027 150.574 30.4287C149.725 30.2546 148.942 29.9609 148.224 29.5476C147.528 29.1342 146.941 28.5904 146.462 27.9159C145.983 27.2415 145.701 26.4148 145.614 25.4358H149.334C149.443 25.958 149.627 26.3822 149.888 26.7085C150.15 27.0349 150.454 27.285 150.802 27.4591C151.172 27.6549 151.575 27.7745 152.01 27.818C152.445 27.8833 152.902 27.9159 153.38 27.9159C154.881 27.9159 155.98 27.5461 156.676 26.8064C157.372 26.0667 157.72 25.0007 157.72 23.6084V21.0304H157.655C157.133 21.9659 156.415 22.6947 155.501 23.2168C154.609 23.7389 153.641 24 152.597 24C151.248 24 150.095 23.7716 149.138 23.3147C148.202 22.8361 147.419 22.1943 146.788 21.3894C146.179 20.5627 145.733 19.6163 145.45 18.5503C145.168 17.4843 145.026 16.3422 145.026 15.1239C145.026 13.9926 145.2 12.9157 145.548 11.8932C145.896 10.8707 146.397 9.97876 147.049 9.21732C147.702 8.43414 148.496 7.81411 149.432 7.35725C150.389 6.90039 151.466 6.67196 152.662 6.67196C153.728 6.67196 154.707 6.90039 155.599 7.35725C156.491 7.79236 157.176 8.48852 157.655 9.44575H157.72V7.12882H161.441V23.1189ZM153.184 21.063C154.011 21.063 154.707 20.8999 155.273 20.5736C155.86 20.2255 156.328 19.7795 156.676 19.2356C157.046 18.67 157.307 18.0391 157.459 17.3429C157.633 16.625 157.72 15.9071 157.72 15.1891C157.72 14.4712 157.633 13.775 157.459 13.1006C157.285 12.4262 157.013 11.828 156.643 11.3058C156.295 10.7837 155.828 10.3704 155.24 10.0658C154.675 9.7612 153.989 9.60892 153.184 9.60892C152.358 9.60892 151.662 9.78296 151.096 10.131C150.53 10.4791 150.073 10.936 149.725 11.5016C149.377 12.0455 149.127 12.6764 148.975 13.3943C148.822 14.0905 148.746 14.7867 148.746 15.4828C148.746 16.179 148.833 16.8643 149.007 17.5387C149.181 18.1914 149.443 18.7787 149.791 19.3009C150.16 19.823 150.617 20.2472 151.161 20.5736C151.727 20.8999 152.401 21.063 153.184 21.063ZM165.186 7.12882H168.71V9.60892L168.776 9.67418C169.341 8.73871 170.081 8.00991 170.995 7.48778C171.908 6.9439 172.92 6.67196 174.029 6.67196C175.879 6.67196 177.336 7.15058 178.402 8.10781C179.468 9.06504 180.001 10.5009 180.001 12.4153V24H176.281V13.3943C176.238 12.0673 175.955 11.11 175.433 10.5226C174.91 9.91349 174.095 9.60892 172.985 9.60892C172.354 9.60892 171.789 9.72857 171.288 9.96788C170.788 10.1854 170.364 10.5009 170.016 10.9142C169.667 11.3058 169.396 11.7736 169.2 12.3174C169.004 12.8613 168.906 13.4378 168.906 14.047V24H165.186V7.12882Z" fill="#FFFE03"/>
</svg>
